PathFileType	4	(X/Y/Z)	 s05c0401.trc
DataRate	CameraRate	NumFrames	NumMarkers	Units	OrigDataRate	OrigDataStartFrame	OrigNumFrames
200	200	4	50	mm	200	751	2000
Frame#	Time	racr			lacr			c7			jug			rlel			rdr			llel			ldr			s2			lic			ric			lasi			rasi			rpsi			lpsi			rgt			lgt			rth1			rth2			rth3			rth4			rlfc			rmfc			rsh1			rsh2			rsh3			rsh4			rlmal			rmmal			rcal			rtoe			rmt5			lth1			lth2			lth4			lth3			llfc			lmfc			lsh1			lsh2			lsh3			lsh4			llmal			lmmal			lcal			ltoe			lmt5			SBIKE			LBIKE			RBIKE			
		X1	Y1	Z1	X2	Y2	Z2	X3	Y3	Z3	X4	Y4	Z4	X5	Y5	Z5	X6	Y6	Z6	X7	Y7	Z7	X8	Y8	Z8	X9	Y9	Z9	X10	Y10	Z10	X11	Y11	Z11	X12	Y12	Z12	X13	Y13	Z13	X14	Y14	Z14	X15	Y15	Z15	X16	Y16	Z16	X17	Y17	Z17	X18	Y18	Z18	X19	Y19	Z19	X20	Y20	Z20	X21	Y21	Z21	X22	Y22	Z22	X23	Y23	Z23	X24	Y24	Z24	X25	Y25	Z25	X26	Y26	Z26	X27	Y27	Z27	X28	Y28	Z28	X29	Y29	Z29	X30	Y30	Z30	X31	Y31	Z31	X32	Y32	Z32	X33	Y33	Z33	X34	Y34	Z34	X35	Y35	Z35	X36	Y36	Z36	X37	Y37	Z37	X38	Y38	Z38	X39	Y39	Z39	X40	Y40	Z40	X41	Y41	Z41	X42	Y42	Z42	X43	Y43	Z43	X44	Y44	Z44	X45	Y45	Z45	X46	Y46	Z46	X47	Y47	Z47	X48	Y48	Z48	X49	Y49	Z49	X50	Y50	Z50	
751	3.7550	749.814171	1297.151382	-62.801541	758.103091	1313.325168	-387.410055	746.066972	1414.270398	-223.141124	702.581352	1246.011459	-230.714918	540.673905	1119.435283	65.085217	680.027776	968.737892	-46.604469	541.315629	1162.524682	-573.509033	681.752543	973.113239	-489.981370	173.769975	1279.013060	-246.949535	322.610550	1288.046407	-376.553307	314.034354	1242.554516	-97.720164	358.044750	1220.903719	-351.375010	341.391060	1178.257608	-135.132916	216.755460	1311.387377	-194.332411	221.274973	1328.542367	-279.100666	222.789325	1119.753400	-102.121458	253.314558	1203.054777	-425.463483	247.546559	1006.591281	-84.176625	280.196032	923.691082	-84.443000	267.286228	836.686279	-93.723828	316.970754	929.025229	-90.645885	297.103851	688.736069	-116.887637	284.664198	692.181475	-225.282325	217.205986	614.931706	-90.328837	189.442885	531.616671	-104.399614	127.987669	472.411183	-107.830318	215.679004	518.820784	-129.707962	58.448440	354.183727	-118.546661	84.679402	360.733698	-200.901709	-12.193288	368.798530	-169.895990	194.194789	155.784326	-146.077587	99.504354	207.599099	-90.085243	340.627625	1093.444929	-439.150314	418.044641	1056.608249	-431.325580	440.053248	1081.215327	-412.277475	466.869925	980.045928	-427.179730	556.850047	860.034263	-392.403312	535.342001	849.947354	-281.738828	460.669864	779.610078	-418.174577	414.707082	705.683023	-411.207724	336.895071	663.103453	-416.478382	435.859816	684.082432	-387.621411	249.769616	574.239026	-415.557187	277.952613	580.509999	-334.580901	175.133061	553.400931	-376.406968	445.289912	439.202941	-394.933063	333.832558	453.987875	-455.302697	-214.672472	916.019003	-269.266157	-43.588812	84.971839	-475.364899	-51.899697	80.299776	-77.771657	
752	3.7600	750.384885	1296.412028	-64.914650	757.903239	1312.297205	-389.748152	746.825839	1413.485661	-225.556776	702.769058	1245.150889	-232.776525	541.090292	1120.008745	64.692142	680.035406	968.812848	-46.688519	539.981658	1161.304511	-574.301885	681.560636	973.040693	-490.306177	174.257548	1280.415415	-246.911744	322.639480	1288.575608	-377.067155	314.841065	1243.928081	-97.989346	358.208173	1221.753925	-351.575350	341.923911	1179.504689	-135.433076	218.073918	1312.232864	-194.982714	221.910226	1329.861132	-279.696529	224.047613	1121.069345	-101.756369	253.051178	1203.601721	-425.366272	250.676664	1007.940226	-84.038699	284.440448	925.451826	-84.910346	272.564692	838.337557	-93.832275	320.970024	931.286763	-91.443352	302.303521	690.383215	-116.435184	289.548073	693.787838	-224.839010	220.810352	617.810555	-89.652341	191.458422	535.018322	-103.701150	128.750691	477.099067	-107.048163	217.331051	521.747186	-129.124050	56.549656	360.173656	-117.836314	83.129879	366.616265	-200.200049	-13.869711	376.299572	-169.120532	188.821212	159.552121	-146.408877	95.234771	212.855365	-90.156503	339.608020	1092.497898	-439.692100	416.214172	1054.833898	-432.832920	438.947431	1078.721940	-413.014821	464.183495	977.244265	-428.274580	551.816202	855.676859	-393.168621	530.754895	845.909525	-282.643124	456.300461	773.800666	-418.964268	411.983600	698.846702	-411.174016	334.946980	654.742261	-416.092783	433.495733	678.025588	-386.993460	250.048163	565.320877	-415.149296	278.011149	572.414530	-334.084800	175.289720	542.722273	-375.639550	449.391241	436.503658	-395.408390	337.287295	447.864989	-455.423557	-214.633697	915.996677	-269.416347	-43.616437	84.919304	-475.367560	-51.929255	80.292028	-77.759530	
753	3.7650	750.968368	1295.666629	-66.938237	757.755949	1311.306498	-392.070478	747.661682	1412.781909	-227.754916	703.032604	1244.538271	-234.737253	541.441805	1120.611375	64.274599	679.963422	968.840112	-46.715574	538.864383	1160.240803	-575.414028	681.377843	972.990162	-490.530156	174.706944	1281.532956	-246.658759	322.611719	1288.898035	-377.571500	315.585840	1245.226191	-98.187603	358.356114	1222.318064	-351.753455	342.474271	1180.612173	-135.774617	218.437342	1313.607024	-194.712135	222.329391	1330.734205	-279.726942	225.482152	1122.191672	-101.267689	252.719338	1203.888416	-425.247557	253.981160	1009.198156	-84.071503	288.823190	927.174733	-85.322568	277.956982	839.969234	-93.806017	325.158432	933.450439	-92.181342	307.585789	692.020497	-115.984458	294.772294	695.217311	-224.427488	224.731563	620.705997	-89.117510	193.665685	538.519592	-102.888473	129.704347	481.898099	-106.143733	219.035116	524.680554	-128.556993	54.920619	366.438810	-116.931733	81.491612	372.982489	-199.290600	-15.349724	383.938993	-168.235011	183.833697	163.821140	-146.550218	91.035824	218.366428	-90.117466	338.594114	1091.449644	-440.108279	414.620944	1052.668781	-433.220133	437.753039	1076.285130	-413.675527	461.189276	974.240069	-428.214987	546.919331	851.323336	-393.828651	526.247890	841.939204	-283.426915	452.166139	767.770604	-419.388377	409.531467	691.712875	-410.982623	333.216420	646.397598	-415.750495	431.299976	671.715845	-386.771249	250.415804	556.534777	-414.666887	278.427722	564.093100	-333.720247	176.642993	531.458410	-374.715704	453.306531	433.133440	-395.910430	340.704955	441.510243	-455.540141	-214.614062	915.984544	-269.425952	-43.612211	84.915811	-475.342228	-51.910382	80.291686	-77.754217	
754	3.7700	751.521510	1295.071931	-68.869607	757.646740	1310.396592	-394.357761	748.439770	1412.117756	-230.005101	703.425402	1243.757003	-236.763182	541.780098	1121.302122	63.941955	679.841497	968.804769	-46.733769	537.836534	1159.216449	-576.540281	680.984214	972.899921	-490.857360	175.173947	1282.471188	-246.452921	322.569438	1288.978252	-378.067222	316.349697	1246.321796	-98.355716	358.426410	1222.646421	-351.966289	343.040409	1181.591566	-136.024556	218.675156	1315.058790	-194.084245	222.801957	1331.355768	-280.190461	226.988827	1123.056704	-100.649951	252.321057	1204.004823	-425.135006	257.545573	1010.309261	-84.217347	293.388384	928.826322	-85.685944	283.661985	841.446759	-93.734357	329.774461	935.698123	-92.688506	313.013598	693.624970	-115.488198	300.291489	696.515097	-224.067284	229.199001	623.283441	-88.395463	196.068489	542.049416	-102.077186	130.778410	486.856906	-105.150070	220.976023	527.791299	-127.894209	53.332448	372.688368	-115.941525	80.350668	379.324697	-198.369654	-16.698495	391.895991	-167.149452	178.917081	168.409423	-146.633332	87.030714	224.062099	-89.990881	337.591110	1090.277160	-440.382372	413.041574	1050.430507	-433.499009	436.564853	1073.804996	-414.047940	458.493171	971.292845	-428.524836	542.245172	847.172706	-394.532191	521.842941	837.877982	-284.138285	448.269983	761.788555	-419.920443	407.199225	684.957635	-411.099884	331.834052	637.974379	-415.633454	429.802500	665.221327	-386.944411	251.152980	547.620999	-414.462029	279.160307	555.823278	-333.525653	178.058588	520.753265	-374.249014	457.021341	429.190441	-396.203409	344.132628	434.851838	-455.529281	-214.580014	916.001459	-269.398146	-43.621211	84.900057	-475.341852	-51.913728	80.274027	-77.775511	
